# xmcd
#
# Track frame offsets:
#	150
#	28916
#	48205
#	63685
#	80364
#	94472
#	123434
#	142587
#
# Disc length: 2152 seconds
#
# Revision: 3
# Processed by: cddbd v1.5.2PL0 Copyright (c) Steve Scherf et al.
# Submitted via: audiograbber 1.83.01
#
DISCID=68086608
DTITLE=The Atlanta Cafe Band - Brothers
DYEAR=2009
DGENRE=Blues
TTITLE0=Bluesman
TTITLE1=Mewie
TTITLE2=Talk To You
TTITLE3=Put a Boogie in your Pocket
TTITLE4=Going Down To Memphis
TTITLE5=Blues for Nancy
TTITLE6=School for the Blues
TTITLE7=Stevie Ray
EXTD=
EXTT0=
EXTT1=
EXTT2=
EXTT3=
EXTT4=
EXTT5=
EXTT6=
EXTT7=
PLAYORDER=
